<svg width="347" height="391" viewBox="0 0 347 391" fill="none" xmlns="http://www.w3.org/2000/svg">
<g clip-path="url(#clip0_654_25)">
<path d="M104.437 19.671C102.444 19.4065 100.52 18.5095 98.9902 16.98C97.3227 15.3125 96.4103 13.1812 96.2455 11C96.0117 13.0508 95.107 15.0365 93.5353 16.6082C91.9828 18.1607 90.024 19.0615 88 19.3107L88.023 19.3337C90.1467 19.5292 92.2167 20.4415 93.842 22.0668C95.4673 23.6922 96.3797 25.7622 96.5752 27.8858L96.5943 27.905C96.832 25.8618 97.7367 23.88 99.3045 22.3122C100.75 20.8632 102.555 19.9815 104.437 19.671Z" fill="white" fill-opacity="0.4"/>
<path d="M109.259 9.24633C108.741 9.17733 108.243 8.94733 107.848 8.54867C107.415 8.1155 107.181 7.5635 107.135 7C107.074 7.53283 106.84 8.0465 106.434 8.45283C106.031 8.85533 105.525 9.08917 105 9.15433L105.008 9.162C105.56 9.21183 106.092 9.4495 106.514 9.87117C106.936 10.2928 107.17 10.8295 107.223 11.3777L107.227 11.3815C107.289 10.8525 107.522 10.3388 107.929 9.9325C108.304 9.55683 108.772 9.32683 109.259 9.24633Z" fill="white" fill-opacity="0.4"/>
<path d="M116.259 20.2463C115.741 20.1773 115.243 19.9473 114.848 19.5487C114.415 19.1155 114.181 18.5635 114.135 18C114.074 18.5328 113.84 19.0465 113.434 19.4528C113.031 19.8553 112.525 20.0892 112 20.1543L112.008 20.162C112.56 20.2118 113.092 20.4495 113.514 20.8712C113.936 21.2928 114.17 21.8295 114.223 22.3777L114.227 22.3815C114.289 21.8525 114.522 21.3388 114.929 20.9325C115.304 20.5568 115.772 20.3268 116.259 20.2463Z" fill="white" fill-opacity="0.4"/>
<path d="M82.2588 96.2463C81.7413 96.1773 81.243 95.9473 80.8482 95.5487C80.415 95.1155 80.1812 94.5635 80.1352 94C80.0738 94.5328 79.84 95.0465 79.4337 95.4528C79.0312 95.8553 78.5252 96.0892 78 96.1543L78.0077 96.162C78.5597 96.2118 79.0925 96.4495 79.5142 96.8712C79.9358 97.2928 80.1697 97.8295 80.2233 98.3777L80.2272 98.3815C80.2885 97.8525 80.5223 97.3388 80.9287 96.9325C81.3043 96.5568 81.772 96.3268 82.2588 96.2463Z" fill="white" fill-opacity="0.4"/>
<path d="M157.259 117.246C156.741 117.177 156.243 116.947 155.848 116.549C155.415 116.116 155.181 115.564 155.135 115C155.074 115.533 154.84 116.047 154.434 116.453C154.031 116.855 153.525 117.089 153 117.154L153.008 117.162C153.56 117.212 154.092 117.45 154.514 117.871C154.936 118.293 155.17 118.829 155.223 119.378L155.227 119.382C155.289 118.853 155.522 118.339 155.929 117.933C156.304 117.557 156.772 117.327 157.259 117.246Z" fill="white" fill-opacity="0.4"/>
<path d="M187.259 9.24633C186.741 9.17733 186.243 8.94733 185.848 8.54867C185.415 8.1155 185.181 7.5635 185.135 7C185.074 7.53283 184.84 8.0465 184.434 8.45283C184.031 8.85533 183.525 9.08917 183 9.15433L183.008 9.162C183.56 9.21183 184.092 9.4495 184.514 9.87117C184.936 10.2928 185.17 10.8295 185.223 11.3777L185.227 11.3815C185.289 10.8525 185.522 10.3388 185.929 9.9325C186.304 9.55683 186.772 9.32683 187.259 9.24633Z" fill="white" fill-opacity="0.4"/>
<rect opacity="0.4" x="185.5" y="-95.5" width="257" height="257" rx="128.5" stroke="white" stroke-opacity="0.01" stroke-width="3"/>
<rect opacity="0.4" x="197.746" y="-83.2536" width="232.507" height="232.507" rx="116.254" stroke="white" stroke-opacity="0.02" stroke-width="3"/>
<rect opacity="0.4" x="209.993" y="-71.0073" width="208.014" height="208.014" rx="104.007" stroke="white" stroke-opacity="0.02" stroke-width="3"/>
<rect opacity="0.4" x="223.181" y="-57.8188" width="181.638" height="181.638" rx="90.8188" stroke="white" stroke-opacity="0.05" stroke-width="3"/>
<rect opacity="0.4" x="235.428" y="-45.5724" width="157.145" height="157.145" rx="78.5725" stroke="white" stroke-opacity="0.07" stroke-width="3"/>
<rect opacity="0.4" x="247.674" y="-33.3261" width="132.652" height="132.652" rx="66.3261" stroke="white" stroke-opacity="0.1" stroke-width="3"/>
<rect opacity="0.4" x="259.92" y="-21.0797" width="108.159" height="108.159" rx="54.0797" stroke="white" stroke-opacity="0.2" stroke-width="3"/>
<rect opacity="0.4" x="272.167" y="-8.83331" width="83.6667" height="83.6667" rx="41.8333" stroke="white" stroke-opacity="0.25" stroke-width="3"/>
<rect x="282.913" y="1.91302" width="62.1739" height="62.1739" rx="31.087" fill="white" fill-opacity="0.8"/>
<path d="M12.7344 119.694C13.2539 119.174 14.0961 119.174 14.6156 119.694L25.4957 130.574C26.0152 131.093 26.0152 131.935 25.4957 132.455V132.455C24.1103 133.84 21.8643 133.84 20.4789 132.455L12.7343 124.71C11.349 123.325 11.349 121.079 12.7344 119.694V119.694Z" fill="white" fill-opacity="0.2"/>
<path d="M10.7161 125.851C11.0169 125.55 11.5045 125.55 11.8053 125.851L19.3386 133.384C19.6394 133.685 19.6394 134.172 19.3386 134.473V134.473C17.7345 136.077 15.1338 136.077 13.5298 134.473L10.7161 131.659C9.11203 130.055 9.11203 127.455 10.7161 125.851V125.851Z" fill="white" fill-opacity="0.2"/>
<rect x="34.0241" y="98.4038" width="18.0472" height="26.827" rx="3" transform="rotate(45 34.0241 98.4038)" fill="white" fill-opacity="0.2"/>
<path fill-rule="evenodd" clip-rule="evenodd" d="M1.9484 61.4994C1.37695 60.928 0.450444 60.928 -0.121006 61.4994L-7.70881 69.0872L0.913696 77.7097L9.53621 69.0872L1.9484 61.4994ZM-9.08842 70.4668L-0.465906 79.0893L-9.08842 87.7119L-16.6762 80.124C-17.2477 79.5526 -17.2477 78.6261 -16.6762 78.0546L-9.08842 70.4668ZM0.913696 80.4689L-7.70882 89.0915L3.328 100.128L11.9505 91.5058L0.913696 80.4689ZM2.2933 79.0893L13.3301 90.1262L21.9526 81.5036L10.9158 70.4668L2.2933 79.0893ZM4.7076 101.508L12.2954 109.096C12.8669 109.667 13.7934 109.667 14.3648 109.096L21.9526 101.508L13.3301 92.8854L4.7076 101.508ZM23.3322 100.128L30.92 92.5405C31.4915 91.969 31.4915 91.0425 30.92 90.4711L23.3322 82.8832L14.7097 91.5058L23.3322 100.128ZM52.3039 131.859L43.6813 123.237L36.0935 130.824C35.5221 131.396 35.5221 132.322 36.0935 132.894L43.6813 140.482L52.3039 131.859ZM52.6488 114.269L45.0609 121.857L53.6835 130.48L62.306 121.857L54.7182 114.269C54.1467 113.698 53.2202 113.698 52.6488 114.269ZM45.0609 141.861L53.6835 133.239L64.7203 144.276L56.0978 152.898L45.0609 141.861ZM76.102 135.653L67.4795 144.276L76.102 152.898L83.6898 145.31C84.2612 144.739 84.2612 143.812 83.6898 143.241L76.102 135.653ZM74.7224 154.278L66.0999 145.655L57.4774 154.278L65.0652 161.865C65.6366 162.437 66.5631 162.437 67.1346 161.865L74.7224 154.278ZM63.6856 123.237L74.7224 134.273L66.0999 142.896L55.0631 131.859L63.6856 123.237Z" fill="white" fill-opacity="0.2"/>
<path d="M53.6835 130.48L45.0609 121.857L43.6813 123.237L52.3039 131.859L53.6835 130.48Z" fill="white" fill-opacity="0.2"/>
<path d="M53.6835 130.48L52.3039 131.859L53.6835 133.239L55.0631 131.859L53.6835 130.48Z" fill="white" fill-opacity="0.2"/>
<path d="M43.6813 140.482L45.0609 141.861L53.6835 133.239L52.3039 131.859L43.6813 140.482Z" fill="white" fill-opacity="0.2"/>
<path d="M63.6856 123.237L62.306 121.857L53.6835 130.48L55.0631 131.859L63.6856 123.237Z" fill="white" fill-opacity="0.2"/>
<path d="M55.0631 131.859L53.6835 133.239L64.7203 144.276L66.0999 142.896L55.0631 131.859Z" fill="white" fill-opacity="0.2"/>
<path d="M76.102 135.653L74.7224 134.273L66.0999 142.896L67.4795 144.276L76.102 135.653Z" fill="white" fill-opacity="0.2"/>
<path d="M56.0978 152.898L57.4774 154.278L66.0999 145.655L64.7203 144.276L56.0978 152.898Z" fill="white" fill-opacity="0.2"/>
<path d="M66.0999 142.896L64.7203 144.276L66.0999 145.655L67.4795 144.276L66.0999 142.896Z" fill="white" fill-opacity="0.2"/>
<path d="M74.7224 154.278L76.102 152.898L67.4795 144.276L66.0999 145.655L74.7224 154.278Z" fill="white" fill-opacity="0.2"/>
<path d="M23.3322 100.128L14.7097 91.5058L13.3301 92.8854L21.9526 101.508L23.3322 100.128Z" fill="white" fill-opacity="0.2"/>
<path d="M23.3322 82.8832L21.9526 81.5036L13.3301 90.1262L14.7097 91.5058L23.3322 82.8832Z" fill="white" fill-opacity="0.2"/>
<path d="M13.3301 92.8854L14.7097 91.5058L13.3301 90.1262L11.9505 91.5058L13.3301 92.8854Z" fill="white" fill-opacity="0.2"/>
<path d="M3.328 100.128L4.7076 101.508L13.3301 92.8854L11.9505 91.5058L3.328 100.128Z" fill="white" fill-opacity="0.2"/>
<path d="M11.9505 91.5058L13.3301 90.1262L2.2933 79.0893L0.913696 80.4689L11.9505 91.5058Z" fill="white" fill-opacity="0.2"/>
<path d="M-9.08842 87.7119L-7.70882 89.0915L0.913696 80.4689L-0.465906 79.0893L-9.08842 87.7119Z" fill="white" fill-opacity="0.2"/>
<path d="M0.913696 80.4689L2.2933 79.0893L0.913696 77.7097L-0.465906 79.0893L0.913696 80.4689Z" fill="white" fill-opacity="0.2"/>
<path d="M10.9158 70.4668L9.53621 69.0872L0.913696 77.7097L2.2933 79.0893L10.9158 70.4668Z" fill="white" fill-opacity="0.2"/>
<path d="M-7.70881 69.0872L-9.08842 70.4668L-0.465906 79.0893L0.913696 77.7097L-7.70881 69.0872Z" fill="white" fill-opacity="0.2"/>
<path d="M43.6813 123.237L45.0609 121.857L40.5772 117.373L39.1976 118.753L43.6813 123.237Z" fill="white" fill-opacity="0.2"/>
<path d="M23.3322 100.128L21.9526 101.508L26.4363 105.992L27.8159 104.612L23.3322 100.128Z" fill="white" fill-opacity="0.2"/>
<path d="M-7.70878 69.0872L-9.08839 70.4668L-0.465875 79.0893L0.913726 77.7097L-7.70878 69.0872Z" fill="white" fill-opacity="0.2"/>
<path d="M10.9158 70.4668L9.53624 69.0872L0.913726 77.7097L2.29333 79.0893L10.9158 70.4668Z" fill="white" fill-opacity="0.2"/>
<path d="M0.913726 80.4689L2.29333 79.0893L0.913726 77.7097L-0.465875 79.0893L0.913726 80.4689Z" fill="white" fill-opacity="0.2"/>
<path d="M-9.08839 87.7119L-7.70878 89.0915L0.913726 80.4689L-0.465875 79.0893L-9.08839 87.7119Z" fill="white" fill-opacity="0.2"/>
<path d="M11.9505 91.5058L13.3301 90.1262L2.29333 79.0893L0.913726 80.4689L11.9505 91.5058Z" fill="white" fill-opacity="0.2"/>
<path d="M23.3323 100.128L14.7097 91.5058L13.3301 92.8854L21.9527 101.508L23.3323 100.128Z" fill="white" fill-opacity="0.2"/>
<path d="M23.3323 82.8832L21.9527 81.5036L13.3301 90.1262L14.7097 91.5058L23.3323 82.8832Z" fill="white" fill-opacity="0.2"/>
<path d="M13.3301 92.8854L14.7097 91.5058L13.3301 90.1262L11.9505 91.5058L13.3301 92.8854Z" fill="white" fill-opacity="0.2"/>
<path d="M3.32803 100.128L4.70763 101.508L13.3301 92.8854L11.9505 91.5058L3.32803 100.128Z" fill="white" fill-opacity="0.2"/>
<path d="M53.6835 130.48L45.061 121.857L43.6814 123.237L52.3039 131.859L53.6835 130.48Z" fill="white" fill-opacity="0.2"/>
<path d="M63.6856 123.237L62.306 121.857L53.6835 130.48L55.0631 131.859L63.6856 123.237Z" fill="white" fill-opacity="0.2"/>
<path d="M53.6835 130.48L52.3039 131.859L53.6835 133.239L55.0631 131.859L53.6835 130.48Z" fill="white" fill-opacity="0.2"/>
<path d="M43.6814 140.482L45.061 141.861L53.6835 133.239L52.3039 131.859L43.6814 140.482Z" fill="white" fill-opacity="0.2"/>
<path d="M55.0631 131.859L53.6835 133.239L64.7203 144.276L66.0999 142.896L55.0631 131.859Z" fill="white" fill-opacity="0.2"/>
<path d="M76.102 135.653L74.7224 134.273L66.0999 142.896L67.4795 144.276L76.102 135.653Z" fill="white" fill-opacity="0.2"/>
<path d="M66.0999 142.896L64.7203 144.276L66.0999 145.655L67.4795 144.276L66.0999 142.896Z" fill="white" fill-opacity="0.2"/>
<path d="M74.7224 154.278L76.102 152.898L67.4795 144.276L66.0999 145.655L74.7224 154.278Z" fill="white" fill-opacity="0.2"/>
<path d="M56.0978 152.898L57.4774 154.278L66.0999 145.655L64.7203 144.276L56.0978 152.898Z" fill="white" fill-opacity="0.2"/>
<path d="M43.6814 123.237L45.061 121.857L40.5773 117.373L39.1977 118.753L43.6814 123.237Z" fill="white" fill-opacity="0.2"/>
<path d="M23.3323 100.128L21.9527 101.508L26.4364 105.992L27.816 104.612L23.3323 100.128Z" fill="white" fill-opacity="0.2"/>
<path d="M69.5316 102.87C69.9221 103.261 69.9237 103.896 69.5142 104.266C65.8464 107.585 61.0675 109.435 56.0977 109.435C50.7939 109.435 45.7072 107.328 41.9568 103.577C38.2064 99.8269 36.0995 94.7403 36.0995 89.4364C36.0995 84.4667 37.9493 79.6877 41.2677 76.02C41.6382 75.6104 42.2734 75.612 42.6639 76.0026L55.4079 88.7466L56.7875 90.1262L69.5316 102.87Z" fill="white" fill-opacity="0.2"/>
<path d="M60.9264 79.7792C62.2597 78.4458 64.4216 78.4458 65.755 79.7792C67.0883 81.1125 67.0883 83.2744 65.755 84.6078C64.6613 85.7015 63.0102 85.8981 61.7161 85.1976C61.4325 85.0441 61.1661 84.8475 60.9264 84.6078C60.6867 84.3681 60.4901 84.1016 60.3365 83.818C59.6361 82.5239 59.8327 80.8728 60.9264 79.7792Z" fill="white" fill-opacity="0.2"/>
<path d="M61.7161 85.1976C61.4325 85.0441 61.1661 84.8475 60.9264 84.6078C60.6867 84.3681 60.4901 84.1016 60.3365 83.818L55.4079 88.7466L56.7875 90.1262L61.7161 85.1976Z" fill="white" fill-opacity="0.2"/>
<circle cx="30.92" cy="114.269" r="5.21851" transform="rotate(45 30.92 114.269)" fill="white" fill-opacity="0.2"/>
<path d="M334.437 100.671C332.444 100.406 330.52 99.5095 328.99 97.98C327.323 96.3125 326.41 94.1812 326.245 92C326.012 94.0508 325.107 96.0365 323.535 97.6082C321.983 99.1607 320.024 100.061 318 100.311L318.023 100.334C320.147 100.529 322.217 101.441 323.842 103.067C325.467 104.692 326.38 106.762 326.575 108.886L326.594 108.905C326.832 106.862 327.737 104.88 329.304 103.312C330.75 101.863 332.555 100.981 334.437 100.671Z" fill="white" fill-opacity="0.8"/>
<path d="M320.259 109.246C319.741 109.177 319.243 108.947 318.848 108.549C318.415 108.116 318.181 107.564 318.135 107C318.074 107.533 317.84 108.047 317.434 108.453C317.031 108.855 316.525 109.089 316 109.154L316.008 109.162C316.56 109.212 317.092 109.45 317.514 109.871C317.936 110.293 318.17 110.829 318.223 111.378L318.227 111.382C318.289 110.853 318.522 110.339 318.929 109.933C319.304 109.557 319.772 109.327 320.259 109.246Z" fill="white" fill-opacity="0.8"/>
</g>
<defs>
<clipPath id="clip0_654_25">
<rect width="347" height="391" fill="white"/>
</clipPath>
</defs>
</svg>
