<svg width="347" height="391" viewBox="0 0 347 391" fill="none" xmlns="http://www.w3.org/2000/svg">
<g clip-path="url(#clip0_654_101)">
<g opacity="0.2">
<path fill-rule="evenodd" clip-rule="evenodd" d="M342.767 217.318C342.831 216.573 342.863 215.818 342.863 215.056C342.863 200.665 331.267 189 316.963 189C304.636 189 294.32 197.664 291.704 209.27C288.799 207.119 285.21 205.848 281.326 205.848C271.647 205.848 263.8 213.742 263.8 223.48C263.8 224.552 263.895 225.602 264.077 226.622C263.921 226.617 263.763 226.614 263.605 226.614C255.539 226.614 249 233.192 249 241.307C249 249.422 255.539 256 263.605 256C263.932 256 264.257 255.989 264.579 255.968V256H337.8V255.779C338.753 255.924 339.728 256 340.721 256C351.369 256 360 247.317 360 236.605C360 226.589 352.453 218.346 342.767 217.318Z" fill="url(#paint0_linear_654_101)"/>
</g>
<g opacity="0.1">
<path fill-rule="evenodd" clip-rule="evenodd" d="M154.767 28.3184C154.831 27.5727 154.863 26.8179 154.863 26.0556C154.863 11.6655 143.267 0 128.963 0C116.636 0 106.32 8.6642 103.704 20.2697C100.799 18.1188 97.2101 16.848 93.3263 16.848C83.6468 16.848 75.8 24.7419 75.8 34.4795C75.8 35.5519 75.8952 36.602 76.0775 37.6216C75.9207 37.6166 75.7633 37.614 75.6053 37.614C67.539 37.614 61 44.1923 61 52.307C61 60.4217 67.539 67 75.6053 67C75.9324 67 76.2571 66.9892 76.5789 66.9679V67H149.8V66.7788C150.753 66.9245 151.728 67 152.721 67C163.369 67 172 58.3167 172 47.6053C172 37.589 164.453 29.3462 154.767 28.3184Z" fill="url(#paint1_linear_654_101)"/>
</g>
<g opacity="0.2">
<path fill-rule="evenodd" clip-rule="evenodd" d="M84.7668 119.318C84.8306 118.573 84.8632 117.818 84.8632 117.056C84.8632 102.665 73.2673 91 58.9632 91C46.6356 91 36.3197 99.6642 33.704 111.27C30.7988 109.119 27.2101 107.848 23.3263 107.848C13.6468 107.848 5.8 115.742 5.8 125.48C5.8 126.552 5.89517 127.602 6.07748 128.622C5.92068 128.617 5.76327 128.614 5.60526 128.614C-2.461 128.614 -9 135.192 -9 143.307C-9 151.422 -2.461 158 5.60526 158C5.93245 158 6.25712 157.989 6.57895 157.968V158H79.8V157.779C80.7526 157.924 81.7281 158 82.7211 158C93.3685 158 102 149.317 102 138.605C102 128.589 94.4525 120.346 84.7668 119.318Z" fill="url(#paint2_linear_654_101)"/>
</g>
<rect x="184" y="-97" width="260" height="260" rx="130" fill="white" fill-opacity="0.05"/>
<rect x="208.493" y="-72.5073" width="211.014" height="211.014" rx="105.507" fill="white" fill-opacity="0.1"/>
<rect x="233.928" y="-47.0724" width="160.145" height="160.145" rx="80.0725" fill="white" fill-opacity="0.16"/>
<rect x="258.42" y="-22.5797" width="111.159" height="111.159" rx="55.5797" fill="white" fill-opacity="0.2"/>
<rect x="282.913" y="1.91302" width="62.1739" height="62.1739" rx="31.087" fill="white"/>
</g>
<defs>
<linearGradient id="paint0_linear_654_101" x1="304.5" y1="189" x2="304.5" y2="256" gradientUnits="userSpaceOnUse">
<stop stop-color="white"/>
<stop offset="1" stop-color="white" stop-opacity="0"/>
</linearGradient>
<linearGradient id="paint1_linear_654_101" x1="116.5" y1="0" x2="116.5" y2="67" gradientUnits="userSpaceOnUse">
<stop stop-color="white"/>
<stop offset="1" stop-color="white" stop-opacity="0"/>
</linearGradient>
<linearGradient id="paint2_linear_654_101" x1="46.5" y1="91" x2="46.5" y2="158" gradientUnits="userSpaceOnUse">
<stop stop-color="white"/>
<stop offset="1" stop-color="white" stop-opacity="0"/>
</linearGradient>
<clipPath id="clip0_654_101">
<rect width="347" height="391" fill="white"/>
</clipPath>
</defs>
</svg>
